<?xml version="1.0" encoding="utf-8"?>
<svg version="1.1" id="Layer_1"
xmlns="http://www.w3.org/2000/svg"
xmlns:xlink="http://www.w3.org/1999/xlink"
width="550px" height="400px"
xml:space="preserve">
<filter id="filter7" x="-0.549524" y="-0.549524" width="2.3043" height="2.30803" >
<feComponentTransfer in="SourceGraphic">
	<feFuncR type="linear" slope="0"/>
	<feFuncG type="linear" slope="0"/>
	<feFuncB type="linear" slope="0"/>
</feComponentTransfer>
<feGaussianBlur stdDeviation="2 2" />
<feOffset result="1" dx="-3.53558" dy="-3.53549"/>
<feComponentTransfer in="SourceGraphic">
	<feFuncR type="linear" slope="0"/>
	<feFuncG type="linear" slope="0"/>
	<feFuncB type="linear" slope="0"/>
</feComponentTransfer>
<feGaussianBlur stdDeviation="2 2" />
<feOffset result="2" dx="3.53558" dy="3.53549"/>
<feComposite  in="1" in2="2" operator="arithmetic" k2="1" k3="-1"/>
<feComponentTransfer result="3">
	<feFuncR type="linear" Ue="0" intercept="1"/>
	<feFuncG type="linear" Ue="0" intercept="0.54902"/>
	<feFuncB type="linear" Ue="0" intercept="0.54902"/>
	<feFuncA type="linear" xh="0" slope="1"/>
</feComponentTransfer>
<feComposite  in="2" in2="1" operator="arithmetic" k2="1" k3="-1"/>
<feComponentTransfer result="4">
	<feFuncR type="linear" Ue="0" intercept="0.6"/>
	<feFuncG type="linear" Ue="0" intercept="0.14902"/>
	<feFuncB type="linear" Ue="0" intercept="0.14902"/>
	<feFuncA type="linear" xh="0" slope="1"/>
</feComponentTransfer>
<feComposite result="5"  in="3" in2="4" operator="arithmetic" k2="1" k3="1"/>
<feComposite result="6"  in="5" in2="SourceGraphic" operator="atop"/>
</filter>
<g style="filter:url(#filter7);">
<g id="PathID_1" transform="matrix(1.00073, -0.00380677, 0, 0.836756, 209.1, 73.2)" opacity="1">
<path style="fill:#FF4040;fill-opacity:1" d="M82.55 36.95L83.2 35.7L91.7 36.8Q92.6 34.65 94.8 34.2Q81 23.65 63.4 27.85Q47.3 31.4 40.2 42.35Q29.7 60 35.4 78.85Q41.45 99.6 64.65 108.7L67.4 108.55L77.8 109.15Q84.25 110.25 85.95 109.15Q98.05 101.3 97.1 86.3Q96.2 74.85 89.05 64.15L93.1 64.95Q89.55 59.7 83.05 57.2Q78.85 55.65 69.75 54.1Q65.1 55.05 63.7 59.55Q62.45 63.4 64.3 67.55Q68.5 71.9 77.45 79Q83.2 84.45 77.15 86.45Q58.6 91.7 54.1 73.6Q52.9 68.8 53.35 63.85L50.1 63.4Q49.15 62.45 51.05 60.75L53.65 61.85Q53.8 60.15 54.25 58.3Q56.45 50.1 61.55 45.75L72.2 44.25Q70.05 44.25 62.8 42.7Q62.95 41.6 62.3 41.15Q70.05 42.35 72.65 43.75Q73.15 44.05 73 44.25L86.75 45Q90 44.25 90.75 39.6Q90.75 38.8 91.05 38.2L82.55 36.95M135 46.1Q146.3 74.4 134.2 102.35Q122.15 130.35 93.85 141.65Q73.15 150 51.35 145.2Q65.55 145.8 78.7 140.4Q92 135.15 101.6 125.55Q86.3 134.85 67.25 134.85Q39.45 134.85 19.8 115.05Q0 95.25 0 67.4Q0 39.6 19.8 19.8Q39.45 0 67.25 0L72.85 0.3L72.85 0Q84.25 1.1 95.55 5.9Q123.7 17.95 135 46.1M56.75 37.1L58.15 34.5Q75.15 38.2 56.75 37.1M44.2 85.95L45.6 85.35Q51.65 83.35 45.15 87.2Q45.75 86.6 44.2 85.95" />
</g>
<g id="PathID_2" transform="matrix(1.00073, -0.00380677, 0, 0.836756, 209.1, 73.2)" opacity="1">
</g>
</g>
<g id="PathID_3" transform="matrix(0.744391, 0, 0, 0.889423, 158.2, 228.05)" opacity="1">
<linearGradient
id="LinearGradID_1" gradientUnits="userSpaceOnUse" gradientTransform="matrix(-8.53738e-009, 0.195313, -0.0296875, -1.29768e-009, 160.1, -5.2)" spreadMethod ="pad" x1="-819.2" y1="0" x2="819.2" y2="0" >
<stop  offset="0" style="stop-color:#FFFFFF;stop-opacity:1" />
<stop  offset="0.498039" style="stop-color:#190B0B;stop-opacity:0.517647" />
<stop  offset="0.501961" style="stop-color:#000000;stop-opacity:1" />
<stop  offset="1" style="stop-color:#190B0B;stop-opacity:0.517647" />
</linearGradient>
<path style="fill:url(#LinearGradID_1) " d="M0.4 -7.45Q0.9 -10.5 3.65 -12.1Q6.35 -13.65 9.95 -13.65Q14.05 -13.65 16.6 -12.05L17.3 -12.5Q17.8 -12.9 18.1 -13Q18.4 -12.85 18.4 -12.75L18.4 -11.95L18.4 8Q18.4 12.65 14.5 15.85Q10.6 19.1 7.45 19.1Q8.65 18.4 9.7 17.6Q10.8 16.8 11.95 15.6Q14.2 13.45 14.2 8.9L14.2 -0.5Q13.4 -0.5 13 -0.4Q9.25 0.3 7.35 0.3Q4.3 0.3 2.25 -0.9Q0.2 -2.15 0.2 -5.35L0.2 -6.15L0.4 -7.45M14.2 -2.75L14.2 -10.15Q14.2 -11.35 13.3 -12Q12.35 -12.65 11 -12.65Q8.95 -12.65 7.15 -11.5Q5.4 -10.4 5.1 -9.15L4.85 -7.45L4.85 -6.55Q4.85 -3.9 6.5 -2.6Q8.25 -1.4 10.7 -1.4Q12.15 -1.4 13.15 -1.75Q14.15 -2.15 14.2 -2.75" />
</g>
<g id="PathID_4" transform="matrix(0.744391, 0, 0, 0.889423, 158.2, 228.05)" opacity="1">
</g>
<g id="PathID_5" transform="matrix(0.744391, 0, 0, 0.889423, 173.7, 228.05)" opacity="1">
<linearGradient
id="LinearGradID_2" gradientUnits="userSpaceOnUse" gradientTransform="matrix(-8.53738e-009, 0.195313, -0.0296875, -1.29768e-009, 139.3, -5.2)" spreadMethod ="pad" x1="-819.2" y1="0" x2="819.2" y2="0" >
<stop  offset="0" style="stop-color:#FFFFFF;stop-opacity:1" />
<stop  offset="0.498039" style="stop-color:#190B0B;stop-opacity:0.517647" />
<stop  offset="0.501961" style="stop-color:#000000;stop-opacity:1" />
<stop  offset="1" style="stop-color:#190B0B;stop-opacity:0.517647" />
</linearGradient>
<path style="fill:url(#LinearGradID_2) " d="M0.4 -6.95Q1.65 -10.3 6.15 -12.5Q10.7 -14.75 15.25 -14.75Q17.85 -14.75 19.65 -13.9Q21.4 -13.05 21.85 -11.65L22.1 -10.6L22.25 -9.55Q22.25 -6.5 19.1 -3.7Q16.1 -1.05 13.6 -0.1Q11.1 0.85 10.2 1L8.2 1.2Q4.85 1.2 2.45 -0.55Q0.05 -2.3 0.05 -4.95Q0.05 -6.1 0.4 -6.95M5.4 -7.05Q5.4 -4.45 7.9 -2.75Q9.2 -1.95 10.45 -1.55Q11.65 -1.15 13.05 -1.15Q14.25 -1.15 15.15 -1.75Q15.95 -2.4 16.55 -3.7Q17.15 -5 17.15 -6.65Q17.15 -8.25 16.55 -9.4Q16.1 -10.7 14.6 -11.95Q13.05 -13.2 10.95 -13.2Q8.7 -13.2 7.05 -11.4Q5.4 -9.6 5.4 -7.05" />
</g>
<g id="PathID_6" transform="matrix(0.744391, 0, 0, 0.889423, 173.7, 228.05)" opacity="1">
</g>
<g id="PathID_7" transform="matrix(0.744391, 0, 0, 0.889423, 191.4, 228.05)" opacity="1">
<linearGradient
id="LinearGradID_3" gradientUnits="userSpaceOnUse" gradientTransform="matrix(-8.53738e-009, 0.195313, -0.0296875, -1.29768e-009, 115.5, -5.2)" spreadMethod ="pad" x1="-819.2" y1="0" x2="819.2" y2="0" >
<stop  offset="0" style="stop-color:#FFFFFF;stop-opacity:1" />
<stop  offset="0.498039" style="stop-color:#190B0B;stop-opacity:0.517647" />
<stop  offset="0.501961" style="stop-color:#000000;stop-opacity:1" />
<stop  offset="1" style="stop-color:#190B0B;stop-opacity:0.517647" />
</linearGradient>
<path style="fill:url(#LinearGradID_3) " d="M0.4 -6.95Q1.65 -10.3 6.15 -12.5Q10.7 -14.75 15.25 -14.75Q17.85 -14.75 19.65 -13.9Q21.4 -13.05 21.85 -11.65L22.1 -10.6L22.25 -9.55Q22.25 -6.5 19.1 -3.7Q16.1 -1.05 13.6 -0.1Q11.1 0.85 10.2 1L8.2 1.2Q4.85 1.2 2.45 -0.55Q0.05 -2.3 0.05 -4.95Q0.05 -6.1 0.4 -6.95M5.4 -7.05Q5.4 -4.45 7.9 -2.75Q9.2 -1.95 10.45 -1.55Q11.65 -1.15 13.05 -1.15Q14.25 -1.15 15.15 -1.75Q15.95 -2.4 16.55 -3.7Q17.15 -5 17.15 -6.65Q17.15 -8.25 16.55 -9.4Q16.1 -10.7 14.6 -11.95Q13.05 -13.2 10.95 -13.2Q8.7 -13.2 7.05 -11.4Q5.4 -9.6 5.4 -7.05" />
</g>
<g id="PathID_8" transform="matrix(0.744391, 0, 0, 0.889423, 191.4, 228.05)" opacity="1">
</g>
<g id="PathID_9" transform="matrix(0.744391, 0, 0, 0.889423, 209.1, 228.05)" opacity="1">
<linearGradient
id="LinearGradID_4" gradientUnits="userSpaceOnUse" gradientTransform="matrix(-8.53738e-009, 0.195313, -0.0296875, -1.29768e-009, 91.75, -5.2)" spreadMethod ="pad" x1="-819.2" y1="0" x2="819.2" y2="0" >
<stop  offset="0" style="stop-color:#FFFFFF;stop-opacity:1" />
<stop  offset="0.498039" style="stop-color:#190B0B;stop-opacity:0.517647" />
<stop  offset="0.501961" style="stop-color:#000000;stop-opacity:1" />
<stop  offset="1" style="stop-color:#190B0B;stop-opacity:0.517647" />
</linearGradient>
<path style="fill:url(#LinearGradID_4) " d="M6.25 1.85L6.25 -7.15Q6.25 -8.65 5.5 -9.2Q4.75 -9.8 3.75 -9.8Q3 -9.8 1.75 -9.45L0 -8.8L6.65 -13.3Q7.85 -14.05 8.65 -14.05Q9.75 -14.05 10.05 -13.05Q10.45 -11.95 10.45 -11.05Q12.85 -12.45 14.2 -12.9Q15.55 -13.4 16.8 -13.4Q17.65 -13.4 19.25 -12.6Q20.9 -11.75 21.45 -11.75Q22.05 -11.75 23.25 -12.3Q24.3 -12.85 25.7 -13.8Q24.55 -11.8 23 -9.85Q21.45 -7.9 18.5 -7.9Q17.25 -7.9 15.75 -8.65Q14.25 -9.35 13.35 -10.15Q12.9 -10.65 12.7 -10.75L12.3 -11Q11.65 -11 11.05 -10.35Q10.45 -9.75 10.45 -9.3L10.45 -1.1L6.25 1.85" />
</g>
<g id="PathID_10" transform="matrix(0.744391, 0, 0, 0.889423, 209.1, 228.05)" opacity="1">
</g>
<g id="PathID_11" transform="matrix(0.744391, 0, 0, 0.889423, 227.7, 228.05)" opacity="1">
<linearGradient
id="LinearGradID_5" gradientUnits="userSpaceOnUse" gradientTransform="matrix(-8.53738e-009, 0.195313, -0.0296875, -1.29768e-009, 66.75, -5.2)" spreadMethod ="pad" x1="-819.2" y1="0" x2="819.2" y2="0" >
<stop  offset="0" style="stop-color:#FFFFFF;stop-opacity:1" />
<stop  offset="0.498039" style="stop-color:#190B0B;stop-opacity:0.517647" />
<stop  offset="0.501961" style="stop-color:#000000;stop-opacity:1" />
<stop  offset="1" style="stop-color:#190B0B;stop-opacity:0.517647" />
</linearGradient>
<path style="fill:url(#LinearGradID_5) " d="M0.4 -6.95Q1.65 -10.3 6.15 -12.5Q10.7 -14.75 15.25 -14.75Q17.85 -14.75 19.65 -13.9Q21.4 -13.05 21.85 -11.65L22.1 -10.6L22.25 -9.55Q22.25 -6.5 19.1 -3.7Q16.1 -1.05 13.6 -0.1Q11.1 0.85 10.2 1L8.2 1.2Q4.85 1.2 2.45 -0.55Q0.05 -2.3 0.05 -4.95Q0.05 -6.1 0.4 -6.95M5.4 -7.05Q5.4 -4.45 7.9 -2.75Q9.2 -1.95 10.45 -1.55Q11.65 -1.15 13.05 -1.15Q14.25 -1.15 15.15 -1.75Q15.95 -2.4 16.55 -3.7Q17.15 -5 17.15 -6.65Q17.15 -8.25 16.55 -9.4Q16.1 -10.7 14.6 -11.95Q13.05 -13.2 10.95 -13.2Q8.7 -13.2 7.05 -11.4Q5.4 -9.6 5.4 -7.05" />
</g>
<g id="PathID_12" transform="matrix(0.744391, 0, 0, 0.889423, 227.7, 228.05)" opacity="1">
</g>
<g id="PathID_13" transform="matrix(0.744391, 0, 0, 0.889423, 245.4, 228.05)" opacity="1">
<linearGradient
id="LinearGradID_6" gradientUnits="userSpaceOnUse" gradientTransform="matrix(-8.53738e-009, 0.195313, -0.0296875, -1.29768e-009, 43, -5.2)" spreadMethod ="pad" x1="-819.2" y1="0" x2="819.2" y2="0" >
<stop  offset="0" style="stop-color:#FFFFFF;stop-opacity:1" />
<stop  offset="0.498039" style="stop-color:#190B0B;stop-opacity:0.517647" />
<stop  offset="0.501961" style="stop-color:#000000;stop-opacity:1" />
<stop  offset="1" style="stop-color:#190B0B;stop-opacity:0.517647" />
</linearGradient>
<path style="fill:url(#LinearGradID_6) " d="M0.4 -6.95Q1.65 -10.3 6.15 -12.5Q10.7 -14.75 15.25 -14.75Q17.85 -14.75 19.65 -13.9Q21.4 -13.05 21.85 -11.65L22.1 -10.6L22.25 -9.55Q22.25 -6.5 19.1 -3.7Q16.1 -1.05 13.6 -0.1Q11.1 0.85 10.2 1L8.2 1.2Q4.85 1.2 2.45 -0.55Q0.05 -2.3 0.05 -4.95Q0.05 -6.1 0.4 -6.95M5.4 -7.05Q5.4 -4.45 7.9 -2.75Q9.2 -1.95 10.45 -1.55Q11.65 -1.15 13.05 -1.15Q14.25 -1.15 15.15 -1.75Q15.95 -2.4 16.55 -3.7Q17.15 -5 17.15 -6.65Q17.15 -8.25 16.55 -9.4Q16.1 -10.7 14.6 -11.95Q13.05 -13.2 10.95 -13.2Q8.7 -13.2 7.05 -11.4Q5.4 -9.6 5.4 -7.05" />
</g>
<g id="PathID_14" transform="matrix(0.744391, 0, 0, 0.889423, 245.4, 228.05)" opacity="1">
</g>
<g id="PathID_15" transform="matrix(0.744391, 0, 0, 0.889423, 263.1, 228.05)" opacity="1">
<linearGradient
id="LinearGradID_7" gradientUnits="userSpaceOnUse" gradientTransform="matrix(-8.53738e-009, 0.195313, -0.0296875, -1.29768e-009, 19.2, -5.2)" spreadMethod ="pad" x1="-819.2" y1="0" x2="819.2" y2="0" >
<stop  offset="0" style="stop-color:#FFFFFF;stop-opacity:1" />
<stop  offset="0.498039" style="stop-color:#190B0B;stop-opacity:0.517647" />
<stop  offset="0.501961" style="stop-color:#000000;stop-opacity:1" />
<stop  offset="1" style="stop-color:#190B0B;stop-opacity:0.517647" />
</linearGradient>
<path style="fill:url(#LinearGradID_7) " d="M0.2 -6.75Q0.2 -9.05 5.5 -11.65Q10.85 -14.2 15.55 -14.2Q17.3 -14.2 18.35 -13.85Q19.55 -13.55 20.35 -12.8L17.1 -10.9Q15.55 -10.05 15.15 -10.3Q14.5 -10.95 13.05 -11.3L11.6 -11.55Q10.85 -11.65 9.95 -11.65Q7.6 -11.65 6.05 -10.95Q4.5 -10.25 4.5 -8.7Q4.5 -5 6.15 -3.55Q7.8 -2.1 10.55 -2.1Q13.1 -2.1 17.95 -3.8L19.65 -4.2Q19.6 -3.4 15 -1.1Q10.45 1.2 6.8 1.2Q3.8 1.2 2 -0.65Q0.2 -2.5 0.2 -6.75" />
</g>
<g id="PathID_16" transform="matrix(0.744391, 0, 0, 0.889423, 263.1, 228.05)" opacity="1">
</g>
<g id="PathID_17" transform="matrix(0.744391, 0, 0, 0.889423, 279.35, 228.05)" opacity="1">
<linearGradient
id="LinearGradID_8" gradientUnits="userSpaceOnUse" gradientTransform="matrix(-8.53738e-009, 0.195313, -0.0296875, -1.29768e-009, -2.6, -5.2)" spreadMethod ="pad" x1="-819.2" y1="0" x2="819.2" y2="0" >
<stop  offset="0" style="stop-color:#FFFFFF;stop-opacity:1" />
<stop  offset="0.498039" style="stop-color:#190B0B;stop-opacity:0.517647" />
<stop  offset="0.501961" style="stop-color:#000000;stop-opacity:1" />
<stop  offset="1" style="stop-color:#190B0B;stop-opacity:0.517647" />
</linearGradient>
<path style="fill:url(#LinearGradID_8) " d="M0.4 -6.95Q1.65 -10.3 6.15 -12.5Q10.7 -14.75 15.25 -14.75Q17.85 -14.75 19.65 -13.9Q21.4 -13.05 21.85 -11.65L22.1 -10.6L22.25 -9.55Q22.25 -6.5 19.1 -3.7Q16.1 -1.05 13.6 -0.1Q11.1 0.85 10.2 1L8.2 1.2Q4.85 1.2 2.45 -0.55Q0.05 -2.3 0.05 -4.95Q0.05 -6.1 0.4 -6.95M5.4 -7.05Q5.4 -4.45 7.9 -2.75Q9.2 -1.95 10.45 -1.55Q11.65 -1.15 13.05 -1.15Q14.25 -1.15 15.15 -1.75Q15.95 -2.4 16.55 -3.7Q17.15 -5 17.15 -6.65Q17.15 -8.25 16.55 -9.4Q16.1 -10.7 14.6 -11.95Q13.05 -13.2 10.95 -13.2Q8.7 -13.2 7.05 -11.4Q5.4 -9.6 5.4 -7.05" />
</g>
<g id="PathID_18" transform="matrix(0.744391, 0, 0, 0.889423, 279.35, 228.05)" opacity="1">
</g>
<g id="PathID_19" transform="matrix(0.744391, 0, 0, 0.889423, 297.05, 228.05)" opacity="1">
<linearGradient
id="LinearGradID_9" gradientUnits="userSpaceOnUse" gradientTransform="matrix(-8.53738e-009, 0.195313, -0.0296875, -1.29768e-009, -26.4, -5.2)" spreadMethod ="pad" x1="-819.2" y1="0" x2="819.2" y2="0" >
<stop  offset="0" style="stop-color:#FFFFFF;stop-opacity:1" />
<stop  offset="0.498039" style="stop-color:#190B0B;stop-opacity:0.517647" />
<stop  offset="0.501961" style="stop-color:#000000;stop-opacity:1" />
<stop  offset="1" style="stop-color:#190B0B;stop-opacity:0.517647" />
</linearGradient>
<path style="fill:url(#LinearGradID_9) " d="M0.4 -6.95Q1.65 -10.3 6.15 -12.5Q10.7 -14.75 15.25 -14.75Q17.85 -14.75 19.65 -13.9Q21.4 -13.05 21.85 -11.65L22.1 -10.6L22.25 -9.55Q22.25 -6.5 19.1 -3.7Q16.1 -1.05 13.6 -0.1Q11.1 0.85 10.2 1L8.2 1.2Q4.85 1.2 2.45 -0.55Q0.05 -2.3 0.05 -4.95Q0.05 -6.1 0.4 -6.95M5.4 -7.05Q5.4 -4.45 7.9 -2.75Q9.2 -1.95 10.45 -1.55Q11.65 -1.15 13.05 -1.15Q14.25 -1.15 15.15 -1.75Q15.95 -2.4 16.55 -3.7Q17.15 -5 17.15 -6.65Q17.15 -8.25 16.55 -9.4Q16.1 -10.7 14.6 -11.95Q13.05 -13.2 10.95 -13.2Q8.7 -13.2 7.05 -11.4Q5.4 -9.6 5.4 -7.05" />
</g>
<g id="PathID_20" transform="matrix(0.744391, 0, 0, 0.889423, 297.05, 228.05)" opacity="1">
</g>
<g id="PathID_21" transform="matrix(0.744391, 0, 0, 0.889423, 314.8, 228.05)" opacity="1">
<linearGradient
id="LinearGradID_10" gradientUnits="userSpaceOnUse" gradientTransform="matrix(-8.53738e-009, 0.195313, -0.0296875, -1.29768e-009, -50.2, -5.2)" spreadMethod ="pad" x1="-819.2" y1="0" x2="819.2" y2="0" >
<stop  offset="0" style="stop-color:#FFFFFF;stop-opacity:1" />
<stop  offset="0.498039" style="stop-color:#190B0B;stop-opacity:0.517647" />
<stop  offset="0.501961" style="stop-color:#000000;stop-opacity:1" />
<stop  offset="1" style="stop-color:#190B0B;stop-opacity:0.517647" />
</linearGradient>
<path style="fill:url(#LinearGradID_10) " d="M7.85 0.4Q5.4 0.4 3.6 -1.3Q1.9 -2.95 1.9 -5.95L1.9 -17.3Q1.9 -20.75 0.8 -22.85L-1.5 -25.6L-1.3 -25.95L-0.75 -26.35L1.7 -27.85Q2.35 -28.5 3.1 -29Q3.85 -29.5 4.45 -29.5Q5.05 -29.5 5.65 -28.55Q6.1 -27.65 6.1 -25.5L6.1 -9.6Q6.1 -6.55 7.9 -4.85Q9.7 -3.1 13 -3.1Q14.1 -3.1 14.95 -3.2Q15.8 -3.3 17.05 -3.6Q19.2 -4.15 21.85 -5.4L17.35 -2.55Q11.7 0.4 7.85 0.4" />
</g>
<g id="PathID_22" transform="matrix(0.744391, 0, 0, 0.889423, 314.8, 228.05)" opacity="1">
</g>
<g id="PathID_23" transform="matrix(0.744391, 0, 0, 0.889423, 330.1, 228.05)" opacity="1">
<linearGradient
id="LinearGradID_11" gradientUnits="userSpaceOnUse" gradientTransform="matrix(-8.53738e-009, 0.195313, -0.0296875, -1.29768e-009, -70.8, -5.2)" spreadMethod ="pad" x1="-819.2" y1="0" x2="819.2" y2="0" >
<stop  offset="0" style="stop-color:#FFFFFF;stop-opacity:1" />
<stop  offset="0.498039" style="stop-color:#190B0B;stop-opacity:0.517647" />
<stop  offset="0.501961" style="stop-color:#000000;stop-opacity:1" />
<stop  offset="1" style="stop-color:#190B0B;stop-opacity:0.517647" />
</linearGradient>
<path style="fill:url(#LinearGradID_11) " d="M0.75 -1.75L4 -2.75L5.85 0.05L3.5 0.7L2.2 1Q1.65 0.7 1.35 -0.3Q1.2 -1.25 0.75 -1.75" />
</g>
<g id="PathID_24" transform="matrix(0.744391, 0, 0, 0.889423, 330.1, 228.05)" opacity="1">
</g>
<g id="PathID_25" transform="matrix(0.744391, 0, 0, 0.889423, 334.85, 228.05)" opacity="1">
<linearGradient
id="LinearGradID_12" gradientUnits="userSpaceOnUse" gradientTransform="matrix(-8.53738e-009, 0.195313, -0.0296875, -1.29768e-009, -77.2, -5.2)" spreadMethod ="pad" x1="-819.2" y1="0" x2="819.2" y2="0" >
<stop  offset="0" style="stop-color:#FFFFFF;stop-opacity:1" />
<stop  offset="0.498039" style="stop-color:#190B0B;stop-opacity:0.517647" />
<stop  offset="0.501961" style="stop-color:#000000;stop-opacity:1" />
<stop  offset="1" style="stop-color:#190B0B;stop-opacity:0.517647" />
</linearGradient>
<path style="fill:url(#LinearGradID_12) " d="M0.2 -6.75Q0.2 -9.05 5.5 -11.65Q10.85 -14.2 15.55 -14.2Q17.3 -14.2 18.35 -13.85Q19.55 -13.55 20.35 -12.8L17.1 -10.9Q15.55 -10.05 15.15 -10.3Q14.5 -10.95 13.05 -11.3L11.6 -11.55Q10.85 -11.65 9.95 -11.65Q7.6 -11.65 6.05 -10.95Q4.5 -10.25 4.5 -8.7Q4.5 -5 6.15 -3.55Q7.8 -2.1 10.55 -2.1Q13.1 -2.1 17.95 -3.8L19.65 -4.2Q19.6 -3.4 15 -1.1Q10.45 1.2 6.8 1.2Q3.8 1.2 2 -0.65Q0.2 -2.5 0.2 -6.75" />
</g>
<g id="PathID_26" transform="matrix(0.744391, 0, 0, 0.889423, 334.85, 228.05)" opacity="1">
</g>
<g id="PathID_27" transform="matrix(0.744391, 0, 0, 0.889423, 351.15, 228.05)" opacity="1">
<linearGradient
id="LinearGradID_13" gradientUnits="userSpaceOnUse" gradientTransform="matrix(-8.53738e-009, 0.195313, -0.0296875, -1.29768e-009, -99.05, -5.2)" spreadMethod ="pad" x1="-819.2" y1="0" x2="819.2" y2="0" >
<stop  offset="0" style="stop-color:#FFFFFF;stop-opacity:1" />
<stop  offset="0.498039" style="stop-color:#190B0B;stop-opacity:0.517647" />
<stop  offset="0.501961" style="stop-color:#000000;stop-opacity:1" />
<stop  offset="1" style="stop-color:#190B0B;stop-opacity:0.517647" />
</linearGradient>
<path style="fill:url(#LinearGradID_13) " d="M0.4 -6.95Q1.65 -10.3 6.15 -12.5Q10.7 -14.75 15.25 -14.75Q17.85 -14.75 19.65 -13.9Q21.4 -13.05 21.85 -11.65L22.1 -10.6L22.25 -9.55Q22.25 -6.5 19.1 -3.7Q16.1 -1.05 13.6 -0.1Q11.1 0.85 10.2 1L8.2 1.2Q4.85 1.2 2.45 -0.55Q0.05 -2.3 0.05 -4.95Q0.05 -6.1 0.4 -6.95M5.4 -7.05Q5.4 -4.45 7.9 -2.75Q9.2 -1.95 10.45 -1.55Q11.65 -1.15 13.05 -1.15Q14.25 -1.15 15.15 -1.75Q15.95 -2.4 16.55 -3.7Q17.15 -5 17.15 -6.65Q17.15 -8.25 16.55 -9.4Q16.1 -10.7 14.6 -11.95Q13.05 -13.2 10.95 -13.2Q8.7 -13.2 7.05 -11.4Q5.4 -9.6 5.4 -7.05" />
</g>
<g id="PathID_28" transform="matrix(0.744391, 0, 0, 0.889423, 351.15, 228.05)" opacity="1">
</g>
<g id="PathID_29" transform="matrix(0.744391, 0, 0, 0.889423, 368.85, 228.05)" opacity="1">
<linearGradient
id="LinearGradID_14" gradientUnits="userSpaceOnUse" gradientTransform="matrix(-8.53738e-009, 0.195313, -0.0296875, -1.29768e-009, -122.85, -5.2)" spreadMethod ="pad" x1="-819.2" y1="0" x2="819.2" y2="0" >
<stop  offset="0" style="stop-color:#FFFFFF;stop-opacity:1" />
<stop  offset="0.498039" style="stop-color:#190B0B;stop-opacity:0.517647" />
<stop  offset="0.501961" style="stop-color:#000000;stop-opacity:1" />
<stop  offset="1" style="stop-color:#190B0B;stop-opacity:0.517647" />
</linearGradient>
<path style="fill:url(#LinearGradID_14) " d="M1.85 0.8Q2.4 -0.6 2.6 -1.75L2.8 -4Q2.8 -6.1 1.9 -7.9L0 -10.45L3.05 -13.5Q3.3 -13.75 3.85 -13.85Q4.75 -13.85 5.55 -12.75Q6.35 -11.65 6.95 -10.45Q9.6 -12.45 12.05 -13.45Q14.45 -14.45 15.95 -14.45Q18.4 -14.45 19.45 -13.25Q20.4 -12.3 21.1 -10.95Q22.4 -11.7 23.7 -12.3Q25 -12.9 26.45 -13.45Q29.3 -14.45 31.5 -14.45Q33.15 -14.45 34.35 -13.85Q35.5 -13.3 36.15 -12.1Q36.75 -10.9 36.95 -9.95L37.15 -8.1Q37.15 -5 34.85 -2.7Q32.5 -0.35 29.05 0.4Q30 -0.45 30.95 -2.05Q31.95 -3.65 31.95 -5.05L31.8 -6.3Q31.75 -6.8 30.95 -8.25Q30.35 -9.6 28.9 -10.45Q27.6 -11.3 26 -11.3Q24.4 -11.3 23.4 -10.8Q22.35 -10.4 21.5 -9.75L22 -7.95L22.2 -6.25L22.15 -4.7L21.75 -3.45Q21.5 -2.65 21.25 -2.35L15.5 0.8L16.25 -1Q16.65 -2.3 16.65 -3.8Q16.65 -5 16.35 -6.25Q16.05 -7.5 15.3 -8.8Q14.6 -10.2 13.6 -10.8Q12.65 -11.4 11.55 -11.4Q10.2 -11.4 9.1 -10.8L7.25 -9.5Q7.6 -8.8 7.95 -7.8Q8.25 -6.8 8.25 -5.8L8.25 -4.7L8.05 -3.75L7.55 -2.25L1.85 0.8" />
</g>
<g id="PathID_30" transform="matrix(0.744391, 0, 0, 0.889423, 368.85, 228.05)" opacity="1">
</g>
</svg>
